<svg width="1469" height="415" viewBox="0 0 1469 415" fill="none" xmlns="http://www.w3.org/2000/svg">
<path d="M1370.55 352.907C1367.82 352.342 1364.98 353.511 1364.21 355.519C1363.44 357.527 1365.03 359.613 1367.76 360.178C1370.49 360.744 1373.33 359.575 1374.1 357.567C1374.86 355.559 1373.28 353.473 1370.55 352.907Z" fill="white" fill-opacity="0.3"/>
<path d="M1347.74 198.692C1349.02 195.351 1353.73 193.406 1358.28 194.347C1362.82 195.288 1365.46 198.758 1364.18 202.099C1362.9 205.44 1358.18 207.385 1353.64 206.444C1349.1 205.503 1346.46 202.032 1347.74 198.692Z" fill="#4AD688"/>
<path d="M1325.34 235.593L1307.67 243.244" stroke="#4AD688" stroke-miterlimit="10"/>
<path d="M1322.25 232.59L1294.48 244.604" stroke="#4AD688" stroke-miterlimit="10"/>
<path d="M1329.98 223.823L1301.47 236.176" stroke="#4AD688" stroke-miterlimit="10"/>
<path d="M1355.39 179.88L1321.79 194.421" stroke="#4AD688" stroke-miterlimit="10"/>
<path d="M1349.5 174.181L1296.71 197.014" stroke="#4AD688" stroke-miterlimit="10"/>
<path d="M1364.23 157.507L1310.01 180.982" stroke="white" stroke-miterlimit="10"/>
<path d="M1289.83 216.787C1287.1 216.221 1284.27 217.39 1283.5 219.398C1282.73 221.406 1284.32 223.493 1287.05 224.058C1289.78 224.624 1292.61 223.455 1293.38 221.447C1294.15 219.439 1292.56 217.352 1289.83 216.787Z" fill="white" fill-opacity="0.3"/>
<path d="M1314.41 143.409C1315.18 141.401 1318.01 140.232 1320.74 140.798C1323.47 141.364 1325.06 143.449 1324.29 145.458C1323.52 147.467 1320.69 148.635 1317.96 148.069C1315.23 147.503 1313.64 145.418 1314.41 143.409Z" fill="white" fill-opacity="0.3"/>
<path d="M1272.79 325.101C1273.14 324.173 1274.46 323.632 1275.72 323.894C1276.98 324.155 1277.71 325.12 1277.36 326.049C1277 326.977 1275.69 327.518 1274.43 327.256C1273.17 326.984 1272.43 326.029 1272.79 325.101Z" fill="white" fill-opacity="0.3"/>
<path d="M1245.25 87.0447C1246.02 85.0357 1248.85 83.8672 1251.59 84.433C1254.32 84.9989 1255.9 87.0839 1255.14 89.0928C1254.37 91.1017 1251.53 92.2703 1248.8 91.7044C1246.07 91.1386 1244.48 89.0536 1245.25 87.0447Z" fill="white" fill-opacity="0.3"/>
<path d="M1374.06 285.788C1371.33 285.222 1368.49 286.391 1367.72 288.399C1366.96 290.407 1368.55 292.493 1371.27 293.059C1374 293.625 1376.84 292.455 1377.61 290.447C1378.38 288.44 1376.79 286.353 1374.06 285.788Z" fill="white" fill-opacity="0.3"/>
<path d="M1296.75 93.7072L1284.66 86.7946L1272.54 101.134L1296.75 93.7072Z" fill="#4AD688"/>
<path d="M1329.01 114.467L1325.89 91.3133L1272.77 109.932L1329.01 114.467Z" fill="#4AD688"/>
<path d="M1322.01 371.369L1343.63 365.799L1325.07 353.032L1322.01 371.369Z" fill="#4AD688"/>
<path d="M116.021 310.686C111.829 310.442 107.887 312.801 107.217 315.955C106.547 319.11 109.403 321.865 113.596 322.109C117.788 322.354 121.73 319.995 122.4 316.84C123.069 313.686 120.214 310.931 116.021 310.686Z" fill="#4AD688"/>
<path d="M116.885 306.615C109.705 306.197 102.955 310.237 101.808 315.639C100.661 321.041 105.552 325.76 112.732 326.178C119.912 326.597 126.662 322.557 127.809 317.155C128.956 311.753 124.066 307.034 116.885 306.615Z" stroke="#4AD688" stroke-miterlimit="10"/>
<path d="M339.516 44.5382C340.327 40.7191 345.107 37.8585 350.182 38.1544C355.258 38.4504 358.721 41.7916 357.911 45.6107C357.1 49.4299 352.32 52.2904 347.244 51.9945C342.168 51.6985 338.702 48.3688 339.516 44.5382Z" stroke="#4AD688" stroke-miterlimit="10"/>
<path d="M84.6831 283.42C74.6746 282.836 65.2649 288.468 63.6661 295.998C62.0672 303.528 68.8846 310.106 78.8931 310.689C88.9016 311.273 98.3112 305.641 99.91 298.111C101.509 290.581 94.6916 284.003 84.6831 283.42Z" fill="#4AD688"/>
<path d="M165.92 335.291L149.832 346.621" stroke="#4AD688" stroke-miterlimit="10"/>
<path d="M162.32 332.439L137.052 350.228" stroke="#4AD688" stroke-miterlimit="10"/>
<path d="M168.61 322.612L142.652 340.904" stroke="#4AD688" stroke-miterlimit="10"/>
<path d="M172.023 124.152L151.493 138.628" stroke="#4AD688" stroke-miterlimit="10"/>
<path d="M167.443 120.503L135.172 143.24" stroke="#4AD688" stroke-miterlimit="10"/>
<path d="M175.46 107.965L142.307 131.32" stroke="#4AD688" stroke-miterlimit="10"/>
<path opacity="0.5" d="M142.614 396.041L166.461 380.246" stroke="#4AD688" stroke-miterlimit="10"/>
<path opacity="0.5" d="M137.644 391.779L175.095 366.967" stroke="#4AD688" stroke-miterlimit="10"/>
<path opacity="0.5" d="M118.018 397.217L156.503 371.726" stroke="#4AD688" stroke-miterlimit="10"/>
<path d="M133.729 238.128C132.44 238.053 131.228 238.778 131.023 239.747C130.817 240.717 131.694 241.564 132.983 241.639C134.272 241.714 135.484 240.989 135.689 240.02C135.895 239.05 135.017 238.203 133.729 238.128Z" fill="white" fill-opacity="0.3"/>
<path d="M143.771 80.5155C143.977 79.5465 145.19 78.8208 146.478 78.8959C147.766 78.9709 148.644 79.8186 148.438 80.7876C148.232 81.7566 147.02 82.4823 145.732 82.4072C144.447 82.3207 143.566 81.4845 143.771 80.5155Z" fill="white" fill-opacity="0.3"/>
<path d="M179.07 66.9025C179.515 64.8048 182.134 63.2378 184.922 63.4004C187.71 63.5629 189.607 65.3932 189.161 67.4909C188.716 69.5886 186.097 71.1556 183.309 70.9931C180.521 70.8305 178.624 69.0002 179.07 66.9025Z" fill="white" fill-opacity="0.3"/>
<path d="M68.8878 173.964C69.3332 171.866 71.9515 170.299 74.7395 170.462C77.5275 170.624 79.4245 172.455 78.9792 174.552C78.5338 176.65 75.9154 178.217 73.1274 178.054C70.337 177.903 68.4425 176.062 68.8878 173.964Z" fill="white" fill-opacity="0.3"/>
<path d="M63.819 249.206L74.7652 226.622L119.512 251.98L63.819 249.206Z" fill="#4AD688"/>
<path d="M120.137 213.505L139.778 220.918L141.046 202.086L120.137 213.505Z" fill="#4AD688"/>
</svg>
