<svg width="1346" height="387" viewBox="0 0 1346 387" fill="none" xmlns="http://www.w3.org/2000/svg">
<path d="M1336.87 328.057C1334.16 327.473 1331.34 328.68 1330.58 330.752C1329.81 332.824 1331.39 334.977 1334.1 335.56C1336.82 336.144 1339.63 334.937 1340.4 332.865C1341.16 330.793 1339.58 328.641 1336.87 328.057Z" fill="white" fill-opacity="0.3"/>
<path d="M1314.21 168.918C1315.48 165.47 1320.17 163.463 1324.68 164.434C1329.19 165.405 1331.82 168.986 1330.55 172.434C1329.27 175.882 1324.59 177.889 1320.08 176.917C1315.56 175.946 1312.94 172.365 1314.21 168.918Z" fill="#4AD688"/>
<path d="M1291.95 206.997L1274.4 214.893" stroke="#4AD688" stroke-miterlimit="10"/>
<path d="M1288.88 203.898L1261.29 216.296" stroke="#4AD688" stroke-miterlimit="10"/>
<path d="M1296.57 194.851L1268.24 207.598" stroke="#4AD688" stroke-miterlimit="10"/>
<path d="M1321.81 149.505L1288.43 164.511" stroke="#4AD688" stroke-miterlimit="10"/>
<path d="M1315.96 143.625L1263.51 167.187" stroke="#4AD688" stroke-miterlimit="10"/>
<path d="M1330.6 126.418L1276.72 150.643" stroke="white" stroke-miterlimit="10"/>
<path d="M1256.68 187.591C1253.97 187.007 1251.15 188.214 1250.38 190.286C1249.62 192.358 1251.2 194.511 1253.91 195.094C1256.62 195.678 1259.44 194.471 1260.2 192.399C1260.97 190.327 1259.39 188.174 1256.68 187.591Z" fill="white" fill-opacity="0.3"/>
<path d="M1281.09 111.871C1281.86 109.798 1284.67 108.592 1287.39 109.176C1290.1 109.76 1291.68 111.911 1290.91 113.984C1290.15 116.057 1287.33 117.263 1284.62 116.679C1281.91 116.095 1280.33 113.944 1281.09 111.871Z" fill="white" fill-opacity="0.3"/>
<path d="M1239.74 299.363C1240.09 298.406 1241.4 297.847 1242.65 298.117C1243.9 298.387 1244.64 299.383 1244.28 300.341C1243.93 301.298 1242.63 301.857 1241.37 301.587C1240.12 301.306 1239.39 300.321 1239.74 299.363Z" fill="white" fill-opacity="0.3"/>
<path d="M1212.38 53.7063C1213.15 51.6332 1215.96 50.4273 1218.68 51.0113C1221.39 51.5952 1222.97 53.7468 1222.2 55.8198C1221.44 57.8929 1218.62 59.0988 1215.91 58.5148C1213.2 57.9309 1211.62 55.7793 1212.38 53.7063Z" fill="white" fill-opacity="0.3"/>
<path d="M1340.36 258.794C1337.65 258.211 1334.83 259.417 1334.07 261.489C1333.3 263.562 1334.88 265.714 1337.59 266.298C1340.3 266.882 1343.12 265.675 1343.89 263.603C1344.65 261.531 1343.07 259.378 1340.36 258.794Z" fill="white" fill-opacity="0.3"/>
<path d="M1263.55 60.5815L1251.54 53.4482L1239.49 68.2456L1263.55 60.5815Z" fill="#4AD688"/>
<path d="M1295.6 82.0041L1292.5 58.1112L1239.73 77.3242L1295.6 82.0041Z" fill="#4AD688"/>
<path d="M1288.64 347.109L1310.13 341.36L1291.69 328.185L1288.64 347.109Z" fill="#4AD688"/>
<path d="M90.4341 284.488C86.2686 284.236 82.3525 286.67 81.687 289.925C81.0216 293.18 83.8589 296.024 88.0243 296.276C92.1898 296.528 96.1061 294.094 96.7715 290.839C97.437 287.583 94.5996 284.74 90.4341 284.488Z" fill="#4AD688"/>
<path d="M91.293 280.287C84.1593 279.855 77.4525 284.024 76.3129 289.599C75.1732 295.173 80.0323 300.043 87.1661 300.475C94.2998 300.907 101.007 296.738 102.146 291.163C103.286 285.589 98.4267 280.719 91.293 280.287Z" stroke="#4AD688" stroke-miterlimit="10"/>
<path d="M312.488 9.84276C313.293 5.9017 318.042 2.94975 323.086 3.25515C328.129 3.56055 331.569 7.00844 330.764 10.9495C329.958 14.8906 325.209 17.8424 320.166 17.537C315.123 17.2316 311.68 13.7956 312.488 9.84276Z" stroke="#4AD688" stroke-miterlimit="10"/>
<path d="M59.2983 256.351C49.3543 255.749 40.0053 261.56 38.4168 269.331C36.8282 277.101 43.6016 283.889 53.5456 284.491C63.4895 285.093 72.8385 279.282 74.427 271.511C76.0156 263.741 69.2423 256.953 59.2983 256.351Z" fill="#4AD688"/>
<path d="M140.012 309.878L124.027 321.57" stroke="#4AD688" stroke-miterlimit="10"/>
<path d="M136.434 306.935L111.329 325.292" stroke="#4AD688" stroke-miterlimit="10"/>
<path d="M142.684 296.795L116.894 315.671" stroke="#4AD688" stroke-miterlimit="10"/>
<path d="M146.075 91.9983L125.677 106.937" stroke="#4AD688" stroke-miterlimit="10"/>
<path d="M141.524 88.2333L109.462 111.696" stroke="#4AD688" stroke-miterlimit="10"/>
<path d="M149.49 75.2947L116.55 99.3948" stroke="#4AD688" stroke-miterlimit="10"/>
<path opacity="0.5" d="M116.855 372.568L140.549 356.269" stroke="#4AD688" stroke-miterlimit="10"/>
<path opacity="0.5" d="M111.918 368.17L149.127 342.565" stroke="#4AD688" stroke-miterlimit="10"/>
<path opacity="0.5" d="M92.4183 373.781L130.655 347.477" stroke="#4AD688" stroke-miterlimit="10"/>
<path d="M108.028 209.613C106.747 209.535 105.543 210.284 105.339 211.284C105.134 212.285 106.006 213.159 107.287 213.236C108.567 213.314 109.771 212.566 109.976 211.565C110.18 210.565 109.308 209.691 108.028 209.613Z" fill="white" fill-opacity="0.3"/>
<path d="M118.006 46.9687C118.21 45.9687 119.415 45.2198 120.694 45.2973C121.974 45.3748 122.847 46.2495 122.642 47.2494C122.438 48.2494 121.233 48.9982 119.953 48.9207C118.676 48.8315 117.801 47.9686 118.006 46.9687Z" fill="white" fill-opacity="0.3"/>
<path d="M153.076 32.9211C153.519 30.7564 156.12 29.1393 158.89 29.3071C161.66 29.4748 163.545 31.3636 163.103 33.5282C162.66 35.6929 160.059 37.3099 157.289 37.1422C154.519 36.9744 152.634 35.0857 153.076 32.9211Z" fill="white" fill-opacity="0.3"/>
<path d="M43.6048 143.401C44.0473 141.236 46.6487 139.619 49.4188 139.787C52.1888 139.954 54.0736 141.843 53.6311 144.008C53.1885 146.172 50.5871 147.789 47.817 147.622C45.0446 147.466 43.1623 145.565 43.6048 143.401Z" fill="white" fill-opacity="0.3"/>
<path d="M38.5687 221.045L49.4444 197.74L93.9021 223.907L38.5687 221.045Z" fill="#4AD688"/>
<path d="M94.5235 184.204L114.038 191.853L115.298 172.421L94.5235 184.204Z" fill="#4AD688"/>
</svg>
